PathFileType  4	(X/Y/Z) C:\Users\antoi\Documents\MyRepositories\mobilecap\ResultsAnalysis
DataRate	CameraRate	NumFrames	NumMarkers	Units	OrigDataRate	OrigDataStartFrame	OrigNumFrames
100.0	100.0	6	55	mm	100.0	85	679
Frame#	Time	r_knee			r_shank_antsup			r_ankle			r_calc			r_5meta			r_toe			L_knee			L_shank_antsup			L_ankle			L_calc			L_5meta			L_toe			r_mknee			r_mankle			L_mknee			L_mankle			r_sh2			r_sh3			r_sh4			L_sh2			L_sh3			r_thigh1			r_thigh2			r_thigh3			r_thigh4			r_thigh5			L_thigh1			L_thigh2			L_thigh3			L_thigh4			r.ASIS			r.PSIS			L.ASIS			L.PSIS			C7			R_Shoulder			L_Shoulder			R_Sternum			L_Sternum			R_humerus			R_elbow_med			R_elbow_lat			R_forearm			R_wrist_radius			R_wrist_ulna			L_humerus			L_elbow_med			L_elbow_lat			L_forearm			L_wrist_radius			L_wrist_ulna			R_HJC			L_HJC			R_HJC_reg			L_HJC_reg			
		X1	Y1	Z1	X2	Y2	Z2	X3	Y3	Z3	X4	Y4	Z4	X5	Y5	Z5	X6	Y6	Z6	X7	Y7	Z7	X8	Y8	Z8	X9	Y9	Z9	X10	Y10	Z10	X11	Y11	Z11	X12	Y12	Z12	X13	Y13	Z13	X14	Y14	Z14	X15	Y15	Z15	X16	Y16	Z16	X17	Y17	Z17	X18	Y18	Z18	X19	Y19	Z19	X20	Y20	Z20	X21	Y21	Z21	X22	Y22	Z22	X23	Y23	Z23	X24	Y24	Z24	X25	Y25	Z25	X26	Y26	Z26	X27	Y27	Z27	X28	Y28	Z28	X29	Y29	Z29	X30	Y30	Z30	X31	Y31	Z31	X32	Y32	Z32	X33	Y33	Z33	X34	Y34	Z34	X35	Y35	Z35	X36	Y36	Z36	X37	Y37	Z37	X38	Y38	Z38	X39	Y39	Z39	X40	Y40	Z40	X41	Y41	Z41	X42	Y42	Z42	X43	Y43	Z43	X44	Y44	Z44	X45	Y45	Z45	X46	Y46	Z46	X47	Y47	Z47	X48	Y48	Z48	X49	Y49	Z49	X50	Y50	Z50	X51	Y51	Z51	X52	Y52	Z52	X53	Y53	Z53	X54	Y54	Z54	X55	Y55	Z55	

85	0.84000000	-219.67514	473.81114	-433.44481	-188.83738	364.91382	-448.88536	-256.45065	90.03487	-466.12717	-302.48782	52.07817	-517.41987	-141.70345	39.86769	-434.83714	-105.46264	58.62960	-476.84026	-214.39785	475.44673	-786.18870	-179.82745	375.01457	-747.26962	-256.23557	88.22390	-770.81414	-296.36128	51.48693	-719.70475	-134.14538	36.63199	-789.22353	-94.71830	58.36293	-736.05078	-238.56624	474.31624	-566.59390	-231.20598	108.06956	-544.06014	-222.77211	474.06954	-654.81717	-226.70600	103.65535	-689.89034	-198.55954	253.35733	-459.84558	-244.00429	362.99445	-396.61925	-268.67013	254.66684	-417.98834	-234.37848	398.60285	-815.39083	-245.72707	277.71109	-826.49336	-121.94384	776.50612	-451.76344	-122.47653	665.46041	-447.58499	-166.23123	641.44770	-403.47319	-224.01703	774.86281	-403.65934	-219.08345	659.51869	-398.64139	-128.40522	767.41388	-783.42996	-124.30014	628.50749	-782.02376	-234.49780	769.46160	-822.32699	-231.63310	628.54285	-814.76766	-113.48120	937.57785	-486.41073	-290.69304	989.17336	-559.86849	-99.30903	937.91076	-731.74078	-289.02459	988.27659	-675.88451	-290.47100	1435.38147	-620.33740	-234.66252	1409.12304	-464.16243	-229.94430	1414.49320	-777.78441	-163.97682	1400.61365	-604.18282	-161.57592	1397.52210	-642.68888	-201.61529	1282.71555	-401.81888	-253.34561	1082.12720	-454.77558	-225.71030	1087.84530	-385.55429	-162.29216	979.11523	-368.35741	-120.22906	882.52574	-372.32431	-151.16407	871.72373	-355.40108	-195.14220	1263.47329	-837.11242	-241.64158	1072.93209	-774.14381	-224.45402	1078.08212	-846.06905	-167.33179	997.50638	-863.40065	-117.20362	874.94394	-849.06382	-143.02982	865.99384	-868.19046	-204.03988	870.06192	-515.57000	-191.52059	866.71849	-704.50394	-184.83377	872.83489	-521.29634	-182.50162	871.58136	-683.46263	
86	0.85000000	-219.69005	473.82174	-433.45533	-188.82832	364.92053	-448.89409	-256.46698	90.02133	-466.17158	-302.51365	52.07329	-517.48340	-141.69628	39.92822	-434.85657	-105.46013	58.63108	-476.84888	-214.42669	475.43835	-786.13841	-179.83148	375.03554	-747.27002	-256.23567	88.23037	-770.81625	-296.42132	51.59104	-719.77340	-134.17366	36.60045	-789.19149	-94.72315	58.37159	-736.04150	-238.57297	474.32060	-566.59725	-231.20748	108.07196	-544.06015	-222.71765	474.00970	-654.86799	-226.72075	103.65817	-689.92604	-198.70573	253.53328	-459.81152	-244.01901	362.99039	-396.61456	-268.67017	254.66885	-417.98027	-234.39472	398.62616	-815.40172	-245.68813	277.69174	-826.47609	-121.95010	776.50170	-451.76439	-122.47586	665.46930	-447.58875	-166.27526	641.49598	-403.43400	-224.01353	774.84506	-403.70275	-219.34098	659.42632	-398.89064	-128.33038	767.48030	-783.37252	-124.30478	628.49118	-781.96507	-234.48404	769.45463	-822.31920	-231.64784	628.56208	-814.84804	-113.44755	937.64942	-486.36722	-290.72541	989.24109	-559.96206	-99.31112	937.89383	-731.71402	-289.02961	988.28670	-675.88343	-290.46506	1435.39697	-620.34466	-234.64718	1409.13749	-464.12839	-229.91132	1414.50657	-777.77315	-163.93697	1400.61359	-604.19921	-161.56933	1397.50744	-642.73758	-201.54354	1282.71109	-401.85438	-253.50178	1082.26504	-454.83467	-225.69260	1087.86010	-385.55704	-162.28757	979.11805	-368.36394	-120.20413	882.54684	-372.35670	-151.13105	871.74710	-355.44321	-195.11167	1263.47997	-837.09229	-241.63732	1072.93601	-774.14088	-224.44272	1078.09217	-846.08206	-167.31915	997.54946	-863.42621	-117.16754	874.95677	-849.06221	-143.01677	866.00001	-868.19158	-204.05435	870.13787	-515.53562	-191.51457	866.71180	-704.46671	-184.85325	872.90847	-521.24337	-182.48078	871.57321	-683.41804	
87	0.86000000	-219.68722	473.81601	-433.49412	-188.83124	364.92799	-448.91110	-256.45375	90.04426	-466.11240	-302.51045	52.10687	-517.48604	-141.69428	39.94973	-434.85563	-105.46435	58.65070	-476.84731	-214.46104	475.44815	-786.13259	-179.86866	375.02838	-747.23694	-256.23464	88.22924	-770.81542	-296.42770	51.61726	-719.78840	-134.18104	36.58254	-789.15028	-94.71826	58.38727	-736.05502	-238.58376	474.31816	-566.59168	-231.20712	108.07165	-544.05942	-222.76431	474.06324	-654.83202	-226.72568	103.66768	-689.94719	-198.81996	253.72724	-459.79969	-244.02990	362.99654	-396.61698	-268.66625	254.66028	-417.95100	-234.40090	398.63681	-815.44827	-245.72363	277.70088	-826.49673	-121.96360	776.52236	-451.78944	-122.47188	665.49780	-447.63517	-166.30301	641.51582	-403.41139	-224.00577	774.82879	-403.73917	-219.61949	659.29615	-399.14983	-128.20449	767.57323	-783.28331	-124.31341	628.47907	-781.93424	-234.49914	769.45896	-822.32983	-231.66641	628.57169	-814.92356	-113.46268	937.67608	-486.32425	-290.75088	989.29560	-560.02077	-99.33513	937.89642	-731.70146	-289.03920	988.29497	-675.87211	-290.44246	1435.40339	-620.35787	-234.58314	1409.14726	-464.17652	-229.87528	1414.51800	-777.76502	-163.91460	1400.64618	-604.27638	-161.55844	1397.50875	-642.72543	-201.48569	1282.70341	-401.90351	-253.52024	1082.35036	-455.02319	-225.68424	1087.88542	-385.56846	-162.30683	979.13185	-368.36933	-120.20635	882.54111	-372.36195	-151.13189	871.78054	-355.46883	-195.07091	1263.47371	-837.06864	-241.65481	1072.91621	-774.13899	-224.43186	1078.09580	-846.08702	-167.31707	997.56747	-863.42940	-117.14336	874.96123	-849.06207	-143.00842	866.00793	-868.19477	-204.09171	870.17902	-515.51746	-191.53235	866.71785	-704.44662	-184.90688	872.97092	-521.19140	-182.51051	871.57005	-683.38489	
88	0.87000000	-219.69476	473.81798	-433.51354	-188.84927	364.94949	-448.92748	-256.44072	90.06978	-466.07060	-302.50181	52.15000	-517.45299	-141.69082	39.93340	-434.84348	-105.46034	58.67736	-476.85085	-214.46812	475.45990	-786.15863	-179.88766	375.00646	-747.21357	-256.23434	88.22492	-770.81178	-296.20725	51.25656	-719.50818	-134.19609	36.55796	-789.10031	-94.72802	58.39558	-736.08908	-238.59353	474.30921	-566.57856	-231.20359	108.06734	-544.05792	-222.81885	474.14439	-654.76959	-226.71942	103.65685	-689.94806	-198.66671	253.59860	-459.86070	-244.04545	363.01808	-396.63030	-268.66684	254.65562	-417.93504	-234.39770	398.62747	-815.46770	-245.75729	277.69497	-826.52018	-121.97581	776.53678	-451.80831	-122.49284	665.51313	-447.65869	-166.29205	641.49408	-403.44998	-224.02820	774.79635	-403.79653	-219.72819	659.23624	-399.22806	-128.15331	767.59876	-783.25013	-124.32376	628.47125	-781.93007	-234.53539	769.45773	-822.35251	-231.68194	628.56051	-814.93781	-113.52104	937.64480	-486.30485	-290.75348	989.30428	-560.01040	-99.31808	937.90275	-731.71822	-289.03685	988.32783	-675.87462	-290.38331	1435.40069	-620.37656	-234.52011	1409.16446	-464.21274	-229.84902	1414.52488	-777.77083	-163.89776	1400.68279	-604.32543	-161.52938	1397.52516	-642.71102	-201.46753	1282.70291	-401.92862	-253.47367	1082.35919	-455.13244	-225.68227	1087.91945	-385.58135	-162.29387	979.11599	-368.37711	-120.22494	882.55224	-372.38014	-151.14689	871.78913	-355.49160	-195.02580	1263.45679	-837.04599	-241.64085	1072.93867	-774.14200	-224.40965	1078.10955	-846.09266	-167.28978	997.55245	-863.41012	-117.14450	874.95632	-849.05880	-143.00249	866.01040	-868.19710	-204.13455	870.16467	-515.53440	-191.54695	866.73897	-704.46232	-184.94578	872.94371	-521.19379	-182.54234	871.57661	-683.41418	
89	0.88000000	-219.72619	473.83514	-433.47957	-188.86428	364.96527	-448.94202	-256.44709	90.05666	-466.11443	-302.50632	52.17177	-517.43669	-141.68331	39.92396	-434.83956	-105.45205	58.68845	-476.86878	-214.43674	475.46841	-786.19487	-179.84256	375.00029	-747.25430	-256.23313	88.22842	-770.81263	-295.93737	50.79590	-719.14241	-134.22097	36.51192	-789.05927	-94.75141	58.38736	-736.14044	-238.59881	474.30396	-566.57249	-231.19759	108.06114	-544.05713	-222.83401	474.14285	-654.76973	-226.69861	103.64401	-689.90982	-198.53529	253.44043	-459.90955	-244.05959	363.03042	-396.64288	-268.67361	254.66166	-417.94813	-234.39532	398.62432	-815.43739	-245.72004	277.65067	-826.50816	-121.97943	776.51288	-451.78760	-122.53204	665.48529	-447.64068	-166.27563	641.49881	-403.50166	-224.06259	774.79439	-403.82580	-219.66446	659.27614	-399.12344	-128.18591	767.55710	-783.28138	-124.33205	628.46869	-781.93280	-234.56364	769.44421	-822.36748	-231.70197	628.56630	-815.02148	-113.56471	937.61206	-486.28754	-290.75393	989.29849	-560.00015	-99.28653	937.88106	-731.71411	-289.01548	988.37099	-675.89113	-290.32748	1435.40619	-620.38430	-234.49910	1409.19389	-464.19632	-229.82655	1414.52932	-777.77585	-163.88084	1400.69735	-604.32364	-161.47325	1397.53775	-642.67599	-201.45352	1282.69396	-401.93962	-253.54588	1082.37933	-455.08322	-225.68409	1087.94207	-385.59395	-162.26604	979.09883	-368.38132	-120.24116	882.58705	-372.43960	-151.16164	871.76121	-355.52608	-194.98294	1263.44530	-837.02699	-241.61170	1072.97931	-774.14415	-224.37260	1078.14771	-846.11906	-167.25575	997.52736	-863.37689	-117.15577	874.95060	-849.05459	-143.00126	866.00712	-868.19487	-204.17544	870.14740	-515.54561	-191.55034	866.74652	-704.47147	-184.97043	872.87579	-521.21934	-182.53682	871.57740	-683.45141	
90	0.89000000	-219.76065	473.85616	-433.43038	-188.87090	364.95834	-448.95488	-256.44761	90.03724	-466.16657	-302.49945	52.17591	-517.42271	-141.68197	39.94034	-434.85809	-105.45558	58.67774	-476.88284	-214.42231	475.49668	-786.24136	-179.81764	375.01049	-747.29335	-256.23146	88.23511	-770.81976	-295.95918	50.82093	-719.14922	-134.22794	36.49937	-789.05654	-94.75059	58.38162	-736.18225	-238.60328	474.30891	-566.57942	-231.19286	108.05795	-544.05893	-222.87041	474.08301	-654.81878	-226.66320	103.66215	-689.81897	-198.65909	253.57043	-459.88868	-244.06841	363.01635	-396.64826	-268.67799	254.66614	-417.95458	-234.41197	398.64228	-815.41232	-245.68406	277.63048	-826.48764	-121.98764	776.48421	-451.76906	-122.55803	665.45314	-447.63795	-166.29960	641.53641	-403.50604	-224.08145	774.82997	-403.79796	-219.42995	659.39034	-398.87222	-128.30981	767.46244	-783.37036	-124.33698	628.48499	-781.96475	-234.57973	769.42955	-822.36682	-231.71323	628.58792	-815.11911	-113.56504	937.60971	-486.26778	-290.76338	989.30317	-560.00849	-99.30993	937.84347	-731.66832	-288.99661	988.38906	-675.90640	-290.31165	1435.42220	-620.37554	-234.48658	1409.22835	-464.18156	-229.79255	1414.53347	-777.76158	-163.86704	1400.69817	-604.32116	-161.39507	1397.54527	-642.63173	-201.42823	1282.68468	-401.95395	-253.66031	1082.41838	-455.01790	-225.69091	1087.94545	-385.60224	-162.28581	979.11628	-368.39217	-120.25588	882.59039	-372.51418	-151.18950	871.74820	-355.55415	-194.94418	1263.44982	-837.01429	-241.60580	1072.99082	-774.14429	-224.33679	1078.19460	-846.16261	-167.24048	997.51863	-863.35759	-117.16309	874.94175	-849.04516	-143.00621	866.00050	-868.18727	-204.20481	870.15587	-515.52458	-191.56401	866.73018	-704.44895	-184.99674	872.84928	-521.22216	-182.52393	871.56987	-683.43574	
